<?xml version="1.0" encoding="UTF-8"?>
<svg width="100%" height="100%" version="1.1" viewBox="0 0 752 752" xmlns="http://www.w3.org/2000/svg">
 <path d="m388.79 196.52c-105.14-7.1055-192.75 76.246-192.75 179.49 0 7.5781 0.47266 14.68 1.4219 21.785 0.47266 3.7891 5.2109 5.6836 8.0508 2.8398l17.523-17.523c0.94531-0.94531 1.4219-2.3672 1.4219-3.7891v-3.3164c0-87.141 73.879-157.23 162.44-151.07 74.824 5.2109 134.97 65.828 140.18 140.18 6.1562 88.559-63.934 162.44-151.07 162.44-58.723 0-109.4-33.625-134.5-82.402l57.777-57.777 62.512 62.512c1.8945 1.8945 4.7344 1.8945 6.6289 0l89.035-89.035v26.992c0 2.8398 1.8945 4.7344 4.7344 4.7344h18.941c2.8398 0 4.7344-1.8945 4.7344-4.7344v-70.562c0-2.8398-1.8945-4.7344-4.7344-4.7344h-70.562c-2.8398 0-4.7344 1.8945-4.7344 4.7344v18.941c0 2.8398 1.8945 4.7344 4.7344 4.7344h26.992l-71.984 71.984-62.512-62.512c-1.8945-1.8945-4.7344-1.8945-6.6289 0l-86.191 86.191c-1.4219 1.4219-1.8945 3.3164-0.94531 5.2109 25.57 66.785 90.922 114.14 166.7 114.14 103.71 0 187.07-87.613 179.49-192.75-6.1562-88.559-78.141-160.54-166.7-166.7z"/>
</svg>
